<svg xmlns="http://www.w3.org/2000/svg" width="24" height="24" viewBox="0 0 24 24" fill="currentColor">
    <path d="M0 0h24v24H0z" fill="none"/>
    <path d="M4 7a1 1 0 0 1 1 1v8a1 1 0 0 1-2 0v-3H2a1 1 0 0 1 0-2h1V8a1 1 0 0 1 1-1M20 7a1 1 0 0 1 1 1v3h1a1 1 0 0 1 0 2h-1v3a1 1 0 0 1-2 0V8a1 1 0 0 1 1-1M16 5a2 2 0 0 1 2 2v10a2 2 0 1 1-4 0v-4h-4v4a2 2 0 1 1-4 0V7a2 2 0 1 1 4 0v4h4V7a2 2 0 0 1 2-2"/>
    <style>
        svg { fill: #31382E; }
        @media (prefers-color-scheme: dark) {
            svg { fill: #e46c2b; }
        }
    </style>
</svg>